<svg xmlns="http://www.w3.org/2000/svg" version="1.1" xmlns:xlink="http://www.w3.org/1999/xlink" xmlns:svgjs="http://svgjs.dev/svgjs" width="1440" height="560" preserveAspectRatio="none" viewBox="0 0 1440 560"><g mask="url(&quot;#SvgjsMask1000&quot;)" fill="none"><rect width="1440" height="560" x="0" y="0" fill="#0e2a47"></rect><path d="M273.69 86.75 a27.88 27.88 0 1 0 55.76 0 a27.88 27.88 0 1 0 -55.76 0z" stroke="#037b0b"></path><path d="M58.01 540.47L83.83 540.47L83.83 595.95L58.01 595.95z" stroke="#e73635"></path><path d="M1287.9 452.71L1332 452.71L1332 458.1L1287.9 458.1z" stroke="#e73635"></path><path d="M454.69 215.57a51.32 51.32 0 1 0 10.07 102.15z" stroke="#e73635"></path><path d="M814.47 186.34L847.75 186.34L847.75 192.02L814.47 192.02z" stroke="#037b0b"></path><path d="M720.17 145.12L771.51 145.12L771.51 161.97L720.17 161.97z" fill="#e73635"></path><path d="M1242.05 150.93a6.54 6.54 0 1 0 10.09-8.32z" fill="#037b0b"></path><path d="M547.55 85.32 a36.53 36.53 0 1 0 73.06 0 a36.53 36.53 0 1 0 -73.06 0z" fill="#037b0b"></path><path d="M1002.64 280.43L1019.25 280.43L1019.25 335.89L1002.64 335.89z" stroke="#037b0b"></path><path d="M1399.43 377.06L1401.09 377.06L1401.09 378.72L1399.43 378.72z" fill="#037b0b"></path><path d="M792.54 417.49a55.75 55.75 0 1 0-80.58 77.06z" fill="#037b0b"></path><path d="M559.58 520.27 a52 52 0 1 0 104 0 a52 52 0 1 0 -104 0z" fill="#037b0b"></path><path d="M517.19 128.18a50.65 50.65 0 1 0-72.98-70.26z" stroke="#d3b714"></path><path d="M1055.68 173.55L1076.09 173.55L1076.09 224.11L1055.68 224.11z" fill="#e73635"></path><path d="M1087.73 506.71L1117.77 506.71L1117.77 536.75L1087.73 536.75z" stroke="#e73635"></path><path d="M383.92 515.98 a18.47 18.47 0 1 0 36.94 0 a18.47 18.47 0 1 0 -36.94 0z" fill="#d3b714"></path><path d="M1208.32 410.07L1235.99 410.07L1235.99 435.77L1208.32 435.77z" fill="#037b0b"></path><path d="M421.64 110.32L457.3 110.32L457.3 151.01L421.64 151.01z" fill="#037b0b"></path><path d="M394.07 399.11L421.02 399.11L421.02 426.06L394.07 426.06z" fill="#e73635"></path><path d="M1313.7 189.45L1368.59 189.45L1368.59 225.88L1313.7 225.88z" stroke="#037b0b"></path><path d="M382.63 554.56 a16.43 16.43 0 1 0 32.86 0 a16.43 16.43 0 1 0 -32.86 0z" stroke="#037b0b"></path><path d="M1250.5 369.03 a41.97 41.97 0 1 0 83.94 0 a41.97 41.97 0 1 0 -83.94 0z" fill="#037b0b"></path><path d="M801.24 351.46L834.5 351.46L834.5 393.56L801.24 393.56z" fill="#d3b714"></path><path d="M154.7 123.75 a8.4 8.4 0 1 0 16.8 0 a8.4 8.4 0 1 0 -16.8 0z" stroke="#037b0b"></path><path d="M165.22 84.84a50.19 50.19 0 1 0-38.25 92.81z" fill="#037b0b"></path><path d="M874.91 559.24 a28.95 28.95 0 1 0 57.9 0 a28.95 28.95 0 1 0 -57.9 0z" fill="#d3b714"></path><path d="M923.08 399.84L935.98 399.84L935.98 412.74L923.08 412.74z" stroke="#e73635"></path><path d="M455.3 527.37a12.69 12.69 0 1 0 6.9 24.42z" fill="#037b0b"></path><path d="M737.72 165.93L776.06 165.93L776.06 181.48L737.72 181.48z" stroke="#d3b714"></path><path d="M1369.55 11.61L1393.81 11.61L1393.81 51.53L1369.55 51.53z" fill="#d3b714"></path><path d="M1102.41 522.23L1110.02 522.23L1110.02 529.84L1102.41 529.84z" stroke="#037b0b"></path><path d="M340.94 535.52L381.92 535.52L381.92 573.19L340.94 573.19z" fill="#e73635"></path><path d="M991.38 383.35L997.18 383.35L997.18 431.33L991.38 431.33z" fill="#d3b714"></path></g><defs><mask id="SvgjsMask1000"><rect width="1440" height="560" fill="#ffffff"></rect></mask></defs></svg>