<svg xmlns="http://www.w3.org/2000/svg" version="1.1" xmlns:xlink="http://www.w3.org/1999/xlink" xmlns:svgjs="http://svgjs.dev/svgjs" width="1440" height="560" preserveAspectRatio="none" viewBox="0 0 1440 560"><g mask="url(&quot;#SvgjsMask1000&quot;)" fill="none"><rect width="1440" height="560" x="0" y="0" fill="rgba(81, 46, 95, 1)"></rect><path d="M0,535.485C98.098,521.853,178.187,460.388,260.023,404.603C339.673,350.308,438.085,305.642,470.401,214.825C502.295,125.195,432.339,33.692,425.781,-61.218C418.481,-166.861,482.712,-280.702,429.822,-372.443C376.089,-465.647,262.86,-521.699,155.588,-529.885C53.701,-537.66,-33.444,-466.002,-121.717,-414.532C-191.242,-373.993,-244.215,-317.528,-302.959,-262.516C-369.426,-200.272,-453.079,-153.911,-489.255,-70.344C-531.012,26.115,-551.433,137.074,-519.258,237.137C-485.626,341.731,-406.285,429.225,-311.022,483.96C-218.021,537.395,-106.238,550.249,0,535.485" fill="#43264f"></path><path d="M1440 1024.342C1523.149 1004.012 1569.203 919.3330000000001 1642.204 874.636 1717.546 828.505 1832.02 835.899 1874.385 758.377 1916.53 681.256 1861.421 588.151 1846.0520000000001 501.619 1831.253 418.297 1838.348 326.68899999999996 1785.915 260.263 1732.695 192.83999999999997 1641.767 175.805 1562.588 142.503 1472.77 104.72699999999998 1383.4279999999999 21.648000000000025 1290.851 52.045000000000016 1197.904 82.56299999999999 1181.297 206.93 1124.272 286.42 1073.655 356.978 983.094 406.65999999999997 974.472 493.067 965.8820000000001 579.149 1050.097 643.1800000000001 1080.593 724.136 1114.179 813.293 1089.281 930.875 1162.402 991.951 1235.379 1052.907 1347.635 1046.926 1440 1024.342" fill="#5f366f"></path></g><defs><mask id="SvgjsMask1000"><rect width="1440" height="560" fill="#ffffff"></rect></mask></defs></svg>